<svg width="383" height="341" viewBox="0 0 383 341" fill="none" xmlns="http://www.w3.org/2000/svg">
<g filter="url(#filter0_dddd_101_51)">
<path fill-rule="evenodd" clip-rule="evenodd" d="M140.099 272.245C148.006 274.665 153.163 278.568 153.163 282.686C153.163 286.791 148.031 290.694 140.175 293.114C142.013 301.147 141.214 307.546 137.654 309.598C136.818 310.08 135.855 310.308 134.79 310.308C131.306 310.308 126.744 307.85 122.132 303.567C117.52 307.875 112.958 310.359 109.474 310.359C108.41 310.359 107.447 310.131 106.623 309.649C103.05 307.596 102.239 301.185 104.064 293.126C96.157 290.706 91 286.804 91 282.686C91 278.58 96.1317 274.69 104.013 272.258C102.176 264.224 102.974 257.826 106.534 255.773C107.371 255.291 108.334 255.063 109.398 255.063V255.051C112.882 255.051 117.444 257.509 122.056 261.792C126.668 257.483 131.23 255 134.714 255V255.013C135.761 255.015 136.72 255.243 137.54 255.722C141.113 257.775 141.924 264.186 140.099 272.245ZM134.702 257.826C132.066 257.832 128.195 259.935 124.071 263.768C125.857 265.631 127.631 267.759 129.342 270.104C132.193 270.408 134.904 270.877 137.388 271.485C137.667 270.205 137.895 268.951 138.034 267.759C138.617 262.919 137.869 259.156 136.146 258.168C135.753 257.952 135.284 257.838 134.702 257.838V257.826ZM120.041 263.781C115.911 259.967 112.021 257.876 109.398 257.876V257.889C108.815 257.889 108.321 257.99 107.941 258.218C106.23 259.219 105.495 262.983 106.091 267.823C106.243 269.001 106.458 270.23 106.75 271.497C109.233 270.877 111.945 270.408 114.808 270.104C116.494 267.759 118.268 265.643 120.041 263.781ZM134.955 279.239C135.614 277.554 136.197 275.869 136.666 274.234C135.006 273.829 133.27 273.499 131.471 273.233C132.091 274.196 132.712 275.185 133.295 276.198C133.891 277.212 134.435 278.226 134.955 279.239ZM130.862 287.729C129.874 289.439 128.86 291.061 127.809 292.569C125.921 292.734 124.007 292.822 122.081 292.822C120.168 292.822 118.255 292.734 116.38 292.582C115.328 291.074 114.302 289.465 113.313 287.767C112.35 286.107 111.476 284.422 110.678 282.724C111.463 281.026 112.35 279.328 113.301 277.668C114.289 275.958 115.303 274.336 116.354 272.828C118.242 272.663 120.156 272.574 122.081 272.574C123.995 272.574 125.908 272.663 127.783 272.815C128.835 274.323 129.861 275.932 130.85 277.63C131.813 279.29 132.687 280.975 133.485 282.673C132.687 284.371 131.813 286.069 130.862 287.729ZM136.704 291.124C136.222 289.477 135.639 287.779 134.955 286.081C134.435 287.095 133.891 288.121 133.308 289.135C132.725 290.161 132.104 291.162 131.483 292.138C133.295 291.872 135.044 291.53 136.704 291.124ZM122.107 299.601C120.928 298.385 119.75 297.029 118.584 295.547C119.725 295.597 120.89 295.635 122.069 295.635C123.26 295.635 124.438 295.61 125.591 295.547C124.451 297.029 123.273 298.385 122.107 299.601ZM107.485 291.137C109.145 291.543 110.88 291.872 112.68 292.138C112.059 291.175 111.451 290.187 110.855 289.173C110.26 288.16 109.715 287.146 109.195 286.132C108.536 287.817 107.954 289.503 107.485 291.137ZM122.043 265.77C123.222 266.987 124.4 268.342 125.566 269.825C124.426 269.774 123.26 269.736 122.081 269.736C120.89 269.736 119.712 269.761 118.559 269.825C119.699 268.342 120.878 266.987 122.043 265.77ZM110.842 276.236C111.425 275.21 112.046 274.209 112.667 273.233C110.855 273.499 109.107 273.841 107.447 274.234C107.928 275.881 108.511 277.579 109.195 279.277C109.715 278.264 110.26 277.25 110.842 276.236ZM101.2 289.097C96.7145 287.184 93.8129 284.675 93.8129 282.686C93.8129 280.696 96.7145 278.175 101.2 276.274C102.29 275.805 103.481 275.387 104.71 274.995C105.432 277.478 106.382 280.063 107.561 282.711C106.395 285.347 105.457 287.919 104.748 290.39C103.493 289.997 102.302 289.566 101.2 289.097ZM106.129 297.612C105.546 302.452 106.294 306.215 108.017 307.204C108.397 307.419 108.878 307.533 109.449 307.546C112.084 307.546 115.961 305.442 120.092 301.603C118.306 299.741 116.532 297.612 114.821 295.268C111.97 294.964 109.259 294.495 106.775 293.887C106.496 295.166 106.268 296.421 106.129 297.612ZM138.072 297.548C138.668 302.389 137.933 306.152 136.222 307.153C135.842 307.381 135.348 307.482 134.765 307.482C132.142 307.482 128.252 305.392 124.121 301.578C125.895 299.715 127.669 297.599 129.355 295.255C132.218 294.951 134.93 294.482 137.413 293.861C137.705 295.141 137.933 296.37 138.072 297.548ZM139.44 290.377C140.67 289.984 141.861 289.566 142.95 289.097C147.436 287.196 150.337 284.675 150.35 282.686C150.35 280.696 147.448 278.187 142.963 276.274C141.848 275.805 140.657 275.375 139.402 274.982C138.693 277.453 137.755 280.025 136.59 282.66C137.768 285.308 138.718 287.893 139.44 290.377Z" fill="white"/>
<circle cx="122.069" cy="282.686" r="5.79055" fill="white"/>
<path d="M174.163 299.794V267.881H186.13C188.582 267.881 190.639 268.307 192.301 269.159C193.973 270.011 195.235 271.206 196.087 272.743C196.949 274.27 197.381 276.052 197.381 278.088C197.381 280.134 196.944 281.911 196.072 283.417C195.209 284.913 193.937 286.071 192.254 286.892C190.571 287.702 188.504 288.107 186.052 288.107H177.529V283.308H185.273C186.707 283.308 187.881 283.11 188.795 282.716C189.709 282.311 190.384 281.724 190.82 280.955C191.267 280.176 191.49 279.22 191.49 278.088C191.49 276.955 191.267 275.989 190.82 275.189C190.374 274.379 189.693 273.766 188.779 273.351C187.865 272.925 186.686 272.712 185.242 272.712H179.944V299.794H174.163ZM190.649 285.334L198.549 299.794H192.098L184.338 285.334H190.649Z" fill="white"/>
<path d="M212.706 300.261C210.306 300.261 208.234 299.763 206.488 298.765C204.754 297.758 203.419 296.335 202.484 294.496C201.549 292.647 201.081 290.47 201.081 287.967C201.081 285.505 201.549 283.344 202.484 281.485C203.429 279.615 204.748 278.16 206.442 277.122C208.135 276.072 210.124 275.548 212.41 275.548C213.885 275.548 215.277 275.787 216.586 276.265C217.905 276.732 219.068 277.459 220.076 278.446C221.094 279.433 221.894 280.69 222.476 282.217C223.058 283.734 223.348 285.541 223.348 287.64V289.369H203.73V285.567H217.941C217.931 284.487 217.697 283.526 217.24 282.685C216.783 281.833 216.144 281.163 215.324 280.674C214.513 280.186 213.568 279.942 212.488 279.942C211.334 279.942 210.322 280.223 209.449 280.783C208.576 281.334 207.896 282.061 207.408 282.965C206.93 283.858 206.686 284.84 206.675 285.91V289.229C206.675 290.621 206.93 291.816 207.439 292.813C207.948 293.8 208.66 294.558 209.574 295.088C210.488 295.607 211.558 295.867 212.784 295.867C213.604 295.867 214.347 295.753 215.012 295.524C215.677 295.285 216.253 294.937 216.742 294.48C217.23 294.023 217.599 293.457 217.848 292.782L223.115 293.374C222.782 294.766 222.149 295.981 221.214 297.02C220.289 298.049 219.105 298.849 217.661 299.42C216.217 299.981 214.565 300.261 212.706 300.261Z" fill="white"/>
<path d="M235.008 300.277C233.491 300.277 232.125 300.007 230.91 299.467C229.705 298.916 228.749 298.106 228.043 297.036C227.347 295.966 226.999 294.647 226.999 293.078C226.999 291.727 227.248 290.611 227.747 289.728C228.245 288.845 228.926 288.138 229.788 287.609C230.65 287.079 231.621 286.679 232.702 286.409C233.792 286.128 234.92 285.926 236.083 285.801C237.485 285.656 238.623 285.526 239.496 285.411C240.368 285.287 241.002 285.1 241.397 284.85C241.802 284.591 242.004 284.191 242.004 283.651V283.557C242.004 282.383 241.656 281.474 240.96 280.83C240.264 280.186 239.262 279.864 237.953 279.864C236.571 279.864 235.475 280.165 234.665 280.768C233.865 281.37 233.325 282.082 233.044 282.903L227.778 282.155C228.193 280.7 228.879 279.485 229.835 278.508C230.79 277.522 231.959 276.784 233.341 276.296C234.722 275.797 236.249 275.548 237.922 275.548C239.075 275.548 240.223 275.683 241.365 275.953C242.508 276.223 243.552 276.67 244.497 277.293C245.443 277.906 246.201 278.742 246.772 279.802C247.354 280.861 247.645 282.186 247.645 283.775V299.794H242.222V296.506H242.035C241.693 297.171 241.21 297.794 240.586 298.376C239.973 298.947 239.199 299.41 238.265 299.763C237.34 300.106 236.254 300.277 235.008 300.277ZM236.473 296.132C237.605 296.132 238.587 295.909 239.418 295.462C240.249 295.005 240.888 294.402 241.334 293.654C241.791 292.907 242.02 292.091 242.02 291.208V288.388C241.843 288.533 241.542 288.668 241.116 288.793C240.701 288.917 240.233 289.027 239.714 289.12C239.194 289.213 238.68 289.297 238.171 289.369C237.662 289.442 237.221 289.504 236.847 289.556C236.005 289.671 235.252 289.858 234.587 290.117C233.922 290.377 233.398 290.741 233.013 291.208C232.629 291.665 232.437 292.257 232.437 292.984C232.437 294.023 232.816 294.808 233.574 295.337C234.333 295.867 235.299 296.132 236.473 296.132Z" fill="white"/>
<path d="M263.757 300.261C261.368 300.261 259.316 299.737 257.602 298.688C255.899 297.638 254.584 296.189 253.66 294.34C252.746 292.481 252.289 290.341 252.289 287.92C252.289 285.489 252.756 283.344 253.691 281.485C254.626 279.615 255.945 278.16 257.649 277.122C259.363 276.072 261.389 275.548 263.726 275.548C265.669 275.548 267.388 275.906 268.884 276.623C270.39 277.329 271.59 278.332 272.483 279.63C273.377 280.919 273.886 282.425 274.01 284.149H268.619C268.401 282.996 267.881 282.035 267.061 281.267C266.25 280.487 265.165 280.098 263.804 280.098C262.651 280.098 261.638 280.41 260.765 281.033C259.893 281.646 259.212 282.529 258.724 283.682C258.246 284.835 258.007 286.217 258.007 287.827C258.007 289.458 258.246 290.86 258.724 292.034C259.202 293.197 259.872 294.096 260.734 294.73C261.607 295.353 262.63 295.665 263.804 295.665C264.635 295.665 265.378 295.509 266.032 295.197C266.697 294.875 267.253 294.413 267.699 293.81C268.146 293.208 268.453 292.475 268.619 291.613H274.01C273.875 293.306 273.377 294.808 272.514 296.116C271.652 297.415 270.478 298.433 268.993 299.171C267.507 299.898 265.762 300.261 263.757 300.261Z" fill="white"/>
<path d="M290.594 275.859V280.223H276.835V275.859H290.594ZM280.232 270.125H285.872V292.595C285.872 293.353 285.987 293.935 286.215 294.34C286.454 294.735 286.766 295.005 287.15 295.15C287.534 295.296 287.96 295.369 288.428 295.369C288.781 295.369 289.103 295.343 289.394 295.291C289.695 295.239 289.924 295.192 290.08 295.15L291.03 299.56C290.729 299.664 290.298 299.778 289.737 299.903C289.186 300.028 288.511 300.1 287.711 300.121C286.298 300.163 285.026 299.95 283.893 299.482C282.761 299.004 281.862 298.267 281.198 297.27C280.543 296.272 280.221 295.026 280.232 293.53V270.125Z" fill="white"/>
</g>
<defs>
<filter id="filter0_dddd_101_51" x="0" y="0" width="382.03" height="340.359" filterUnits="userSpaceOnUse" color-interpolation-filters="sRGB">
<feFlood flood-opacity="0" result="BackgroundImageFix"/>
<feColorMatrix in="SourceAlpha" type="matrix" values="0 0 0 0 0 0 0 0 0 0 0 0 0 0 0 0 0 0 127 0" result="hardAlpha"/>
<feOffset dy="-164"/>
<feGaussianBlur stdDeviation="45.5"/>
<feComposite in2="hardAlpha" operator="out"/>
<feColorMatrix type="matrix" values="0 0 0 0 1 0 0 0 0 1 0 0 0 0 1 0 0 0 0.31 0"/>
<feBlend mode="normal" in2="BackgroundImageFix" result="effect1_dropShadow_101_51"/>
<feColorMatrix in="SourceAlpha" type="matrix" values="0 0 0 0 0 0 0 0 0 0 0 0 0 0 0 0 0 0 127 0" result="hardAlpha"/>
<feOffset dy="-91"/>
<feGaussianBlur stdDeviation="35"/>
<feComposite in2="hardAlpha" operator="out"/>
<feColorMatrix type="matrix" values="0 0 0 0 1 0 0 0 0 1 0 0 0 0 1 0 0 0 0.51 0"/>
<feBlend mode="normal" in2="effect1_dropShadow_101_51" result="effect2_dropShadow_101_51"/>
<feColorMatrix in="SourceAlpha" type="matrix" values="0 0 0 0 0 0 0 0 0 0 0 0 0 0 0 0 0 0 127 0" result="hardAlpha"/>
<feOffset dy="-35"/>
<feGaussianBlur stdDeviation="20.5"/>
<feComposite in2="hardAlpha" operator="out"/>
<feColorMatrix type="matrix" values="0 0 0 0 1 0 0 0 0 1 0 0 0 0 1 0 0 0 0.41 0"/>
<feBlend mode="normal" in2="effect2_dropShadow_101_51" result="effect3_dropShadow_101_51"/>
<feColorMatrix in="SourceAlpha" type="matrix" values="0 0 0 0 0 0 0 0 0 0 0 0 0 0 0 0 0 0 127 0" result="hardAlpha"/>
<feOffset/>
<feGaussianBlur stdDeviation="15"/>
<feComposite in2="hardAlpha" operator="out"/>
<feColorMatrix type="matrix" values="0 0 0 0 1 0 0 0 0 1 0 0 0 0 1 0 0 0 0.58 0"/>
<feBlend mode="normal" in2="effect3_dropShadow_101_51" result="effect4_dropShadow_101_51"/>
<feBlend mode="normal" in="SourceGraphic" in2="effect4_dropShadow_101_51" result="shape"/>
</filter>
</defs>
</svg>
