<svg width="776" height="231" viewBox="0 0 776 231" fill="none" xmlns="http://www.w3.org/2000/svg">
<path d="M746.776 191.141C743.498 210.185 741.86 219.707 735.158 225.353C728.457 231 718.795 231 699.471 231L76.529 231C57.2052 231 47.5433 231 40.8419 225.353C34.1404 219.707 32.5018 210.185 29.2244 191.141L16.6615 118.141C12.179 92.0941 9.93778 79.0707 17.1297 70.5354C24.3217 62 37.5365 62 63.9661 62L712.034 62.0001C738.464 62.0001 751.678 62.0001 758.87 70.5354C766.062 79.0708 763.821 92.0942 759.338 118.141L746.776 191.141Z" fill="#444444"/>
<path d="M699.471 230.5L76.529 230.5C66.8543 230.5 59.6444 230.499 54.0138 229.798C48.397 229.099 44.4128 227.708 41.1641 224.971C37.9152 222.233 35.8694 218.543 34.2276 213.126C32.5817 207.696 31.358 200.591 29.7172 191.056L17.1543 118.056C14.9104 105.018 13.2379 95.2915 13.0175 87.7567C12.7976 80.2359 14.0291 74.9911 17.5121 70.8576C20.9951 66.724 25.955 64.6207 33.4042 63.5619C40.8671 62.5012 50.736 62.5 63.9661 62.5L712.034 62.5001C725.264 62.5001 735.133 62.5013 742.596 63.562C750.045 64.6208 755.005 66.724 758.488 70.8576C761.971 74.9912 763.202 80.236 762.983 87.7568C762.762 95.2916 761.09 105.018 758.846 118.056L746.283 191.056C744.642 200.591 743.418 207.696 741.772 213.126C740.131 218.543 738.085 222.233 734.836 224.971C731.587 227.708 727.603 229.099 721.986 229.798C716.356 230.499 709.146 230.5 699.471 230.5Z" stroke="url(#paint0_radial_0_1)" stroke-opacity="0.6"/>
<g filter="url(#filter0_f_0_1)">
<path d="M751.992 115.831C747.034 144.637 744.556 159.04 736.095 169.027C732.617 173.133 728.473 176.624 723.837 179.356C712.56 186 697.945 186 668.716 186L107.284 186C78.0547 186 63.44 186 52.1627 179.356C47.5269 176.624 43.3832 173.133 39.9051 169.027C31.4443 159.04 28.9657 144.637 24.0083 115.831V115.831C17.2453 76.5333 13.8639 56.8843 21.6504 42.3422C24.8126 36.4365 29.1759 31.2581 34.4597 27.1401C47.4706 17 67.4084 17 107.284 17L668.716 17.0001C708.592 17.0001 728.529 17.0001 741.54 27.1402C746.824 31.2581 751.187 36.4365 754.35 42.3422C762.136 56.8843 758.755 76.5333 751.992 115.831V115.831Z" fill="#010101" fill-opacity="0.2"/>
</g>
<defs>
<filter id="filter0_f_0_1" x="0.167969" y="0" width="775.664" height="203" filterUnits="userSpaceOnUse" color-interpolation-filters="sRGB">
<feFlood flood-opacity="0" result="BackgroundImageFix"/>
<feBlend mode="normal" in="SourceGraphic" in2="BackgroundImageFix" result="shape"/>
<feGaussianBlur stdDeviation="8.5" result="effect1_foregroundBlur_0_1"/>
</filter>
<radialGradient id="paint0_radial_0_1" cx="0" cy="0" r="1" gradientUnits="userSpaceOnUse" gradientTransform="translate(-34.0001 169.5) rotate(-3.13677) scale(316.9 89.3876)">
<stop offset="0.0208333" stop-color="white"/>
<stop offset="1" stop-color="white" stop-opacity="0"/>
</radialGradient>
</defs>
</svg>
