<svg width="402" height="339" viewBox="0 0 402 339" fill="none" xmlns="http://www.w3.org/2000/svg">
<g filter="url(#filter0_dddd_101_71)">
<path d="M110.951 257.359C114.536 255.201 118.809 254.489 122.902 255.366C126.994 256.244 130.599 258.647 132.982 262.085C134.171 263.75 135.015 265.635 135.464 267.63C135.914 269.626 135.961 271.69 135.601 273.704C135.244 275.622 134.512 277.452 133.446 279.087C135.009 282.072 135.536 285.491 134.942 288.807C134.583 290.773 133.818 292.642 132.697 294.297C131.577 295.953 130.124 297.357 128.432 298.422L115.89 306.377C112.304 308.536 108.031 309.248 103.938 308.37C99.8457 307.493 96.2415 305.09 93.8585 301.652C92.6697 299.993 91.8255 298.113 91.3757 296.122C90.9258 294.132 90.8795 292.072 91.2394 290.063C91.5841 288.143 92.3119 286.313 93.3796 284.68C91.816 281.695 91.2895 278.276 91.8829 274.96C92.2374 272.994 92.9981 271.124 94.1165 269.468C95.2349 267.813 96.6864 266.408 98.3785 265.345L110.951 257.359ZM103.752 302.116C105.67 302.822 107.759 302.926 109.738 302.415C110.64 302.175 111.498 301.797 112.283 301.293L124.84 293.308C125.858 292.664 126.73 291.816 127.403 290.817C128.075 289.818 128.533 288.691 128.746 287.506C128.971 286.303 128.954 285.068 128.697 283.872C128.44 282.676 127.948 281.542 127.249 280.538C126.085 278.864 124.435 277.586 122.521 276.878C120.608 276.169 118.523 276.063 116.548 276.575C115.648 276.818 114.79 277.196 114.004 277.696L109.184 280.687C108.947 280.837 108.69 280.953 108.421 281.031C107.829 281.182 107.205 281.149 106.632 280.935C106.059 280.721 105.566 280.337 105.218 279.835C105.002 279.533 104.848 279.191 104.765 278.829C104.683 278.467 104.674 278.092 104.739 277.726C104.806 277.369 104.945 277.03 105.148 276.729C105.352 276.428 105.615 276.172 105.922 275.977L118.464 268.006C118.706 267.861 118.968 267.75 119.242 267.677C119.83 267.522 120.451 267.548 121.023 267.754C121.595 267.96 122.091 268.335 122.445 268.829C122.805 269.387 122.954 270.055 122.864 270.713V271.192L123.343 271.326C125.086 271.841 126.73 272.645 128.207 273.704L128.851 274.182L129.09 273.465C129.215 273.082 129.315 272.693 129.39 272.298C129.605 271.09 129.575 269.85 129.303 268.653C129.03 267.456 128.52 266.326 127.803 265.33C126.641 263.657 124.994 262.38 123.083 261.672C121.172 260.963 119.09 260.857 117.117 261.367C116.222 261.605 115.369 261.978 114.587 262.474L102.015 270.474C100.996 271.113 100.122 271.958 99.4492 272.954C98.7765 273.951 98.32 275.077 98.1091 276.261C97.8836 277.463 97.8999 278.699 98.1568 279.895C98.4138 281.092 98.9063 282.225 99.6058 283.229C100.768 284.902 102.415 286.179 104.326 286.887C106.237 287.596 108.319 287.702 110.292 287.192C111.19 286.951 112.048 286.578 112.836 286.085L117.641 283.095C117.879 282.938 118.142 282.821 118.419 282.751C119.013 282.596 119.641 282.628 120.217 282.842C120.792 283.056 121.288 283.442 121.637 283.947C121.854 284.246 122.008 284.585 122.09 284.945C122.173 285.305 122.181 285.677 122.116 286.041C122.056 286.4 121.919 286.742 121.715 287.044C121.511 287.346 121.244 287.6 120.933 287.79L108.406 295.775C108.171 295.929 107.914 296.045 107.643 296.119C107.049 296.274 106.421 296.242 105.845 296.028C105.27 295.814 104.774 295.428 104.425 294.923C104.037 294.386 103.852 293.729 103.901 293.069V292.59L103.407 292.456C101.652 291.93 100.002 291.106 98.5282 290.018L97.8696 289.54L97.6451 290.257C97.5174 290.639 97.4173 291.028 97.3458 291.424C97.1276 292.631 97.1543 293.87 97.4242 295.067C97.6942 296.264 98.2019 297.395 98.9173 298.392C100.099 300.109 101.79 301.411 103.752 302.116Z" fill="white"/>
<path d="M162.954 296.637C160.428 296.637 158.242 296.025 156.395 294.801C154.548 293.55 153.272 291.85 152.566 289.701L156.558 288.233C157.156 289.566 158.025 290.626 159.165 291.415C160.306 292.177 161.623 292.557 163.117 292.557C164.692 292.557 165.941 292.177 166.864 291.415C167.815 290.653 168.29 289.566 168.29 288.151C168.29 287.553 168.154 287.009 167.883 286.519C167.638 286.003 167.353 285.581 167.027 285.255C166.701 284.928 166.199 284.602 165.52 284.275C164.841 283.922 164.271 283.663 163.809 283.5C163.375 283.31 162.723 283.065 161.854 282.766C160.767 282.385 159.953 282.086 159.41 281.868C158.866 281.651 158.147 281.297 157.251 280.808C156.382 280.291 155.716 279.788 155.255 279.298C154.82 278.781 154.426 278.115 154.073 277.299C153.72 276.483 153.544 275.572 153.544 274.566C153.544 272.471 154.358 270.703 155.988 269.262C157.617 267.82 159.831 267.1 162.628 267.1C164.963 267.1 166.878 267.616 168.372 268.65C169.892 269.683 170.911 271.057 171.427 272.77L167.516 274.076C167.136 273.206 166.498 272.512 165.601 271.995C164.732 271.451 163.633 271.179 162.302 271.179C160.944 271.179 159.871 271.479 159.084 272.077C158.323 272.675 157.943 273.518 157.943 274.606C157.943 275.341 158.242 275.993 158.839 276.565C159.437 277.136 160.061 277.557 160.713 277.829C161.365 278.101 162.356 278.469 163.687 278.931C164.502 279.23 165.099 279.461 165.479 279.624C165.887 279.76 166.471 280.005 167.231 280.359C167.991 280.712 168.575 281.039 168.983 281.338C169.39 281.61 169.865 281.991 170.408 282.48C170.951 282.97 171.359 283.473 171.63 283.99C171.929 284.479 172.174 285.091 172.364 285.826C172.581 286.533 172.69 287.294 172.69 288.11C172.69 290.776 171.78 292.87 169.96 294.393C168.141 295.889 165.805 296.637 162.954 296.637Z" fill="white"/>
<path d="M189.127 296.148L179.351 267.589H183.913L190.39 287.498C190.798 288.75 191.096 289.837 191.286 290.762C191.477 289.837 191.775 288.75 192.183 287.498L198.578 267.589H203.1L193.364 296.148H189.127Z" fill="white"/>
<path d="M211.711 295.925V267.367H229.391V271.365H215.948V279.198H224.625V283.196H215.948V291.927H230.287V295.925H211.711Z" fill="white"/>
<path d="M241.16 296.148V267.589H245.396V292.068H259.328V296.148H241.16Z" fill="white"/>
<path d="M275.64 271.669V296.148H271.403V271.669H263.337V267.589H283.705V271.669H275.64Z" fill="white"/>
<path d="M292.424 296.148V267.589H310.104V271.587H296.661V279.42H305.338V283.419H296.661V292.149H311V296.148H292.424Z" fill="white"/>
</g>
<defs>
<filter id="filter0_dddd_101_71" x="0" y="0" width="402" height="338.737" filterUnits="userSpaceOnUse" color-interpolation-filters="sRGB">
<feFlood flood-opacity="0" result="BackgroundImageFix"/>
<feColorMatrix in="SourceAlpha" type="matrix" values="0 0 0 0 0 0 0 0 0 0 0 0 0 0 0 0 0 0 127 0" result="hardAlpha"/>
<feOffset dy="-164"/>
<feGaussianBlur stdDeviation="45.5"/>
<feComposite in2="hardAlpha" operator="out"/>
<feColorMatrix type="matrix" values="0 0 0 0 1 0 0 0 0 1 0 0 0 0 1 0 0 0 0.31 0"/>
<feBlend mode="normal" in2="BackgroundImageFix" result="effect1_dropShadow_101_71"/>
<feColorMatrix in="SourceAlpha" type="matrix" values="0 0 0 0 0 0 0 0 0 0 0 0 0 0 0 0 0 0 127 0" result="hardAlpha"/>
<feOffset dy="-91"/>
<feGaussianBlur stdDeviation="35"/>
<feComposite in2="hardAlpha" operator="out"/>
<feColorMatrix type="matrix" values="0 0 0 0 1 0 0 0 0 1 0 0 0 0 1 0 0 0 0.51 0"/>
<feBlend mode="normal" in2="effect1_dropShadow_101_71" result="effect2_dropShadow_101_71"/>
<feColorMatrix in="SourceAlpha" type="matrix" values="0 0 0 0 0 0 0 0 0 0 0 0 0 0 0 0 0 0 127 0" result="hardAlpha"/>
<feOffset dy="-35"/>
<feGaussianBlur stdDeviation="20.5"/>
<feComposite in2="hardAlpha" operator="out"/>
<feColorMatrix type="matrix" values="0 0 0 0 1 0 0 0 0 1 0 0 0 0 1 0 0 0 0.41 0"/>
<feBlend mode="normal" in2="effect2_dropShadow_101_71" result="effect3_dropShadow_101_71"/>
<feColorMatrix in="SourceAlpha" type="matrix" values="0 0 0 0 0 0 0 0 0 0 0 0 0 0 0 0 0 0 127 0" result="hardAlpha"/>
<feOffset/>
<feGaussianBlur stdDeviation="15"/>
<feComposite in2="hardAlpha" operator="out"/>
<feColorMatrix type="matrix" values="0 0 0 0 1 0 0 0 0 1 0 0 0 0 1 0 0 0 0.58 0"/>
<feBlend mode="normal" in2="effect3_dropShadow_101_71" result="effect4_dropShadow_101_71"/>
<feBlend mode="normal" in="SourceGraphic" in2="effect4_dropShadow_101_71" result="shape"/>
</filter>
</defs>
</svg>
