<svg width="362" height="351" viewBox="0 0 362 351" fill="none" xmlns="http://www.w3.org/2000/svg">
<g filter="url(#filter0_dddd_101_74)">
<path fill-rule="evenodd" clip-rule="evenodd" d="M138.857 255H151.847H167.571L129.286 320.462L91 255H121.082L129.286 270.041L138.857 255ZM109.63 260.469H100.401L129.286 309.694L158 260.469H148.77L129.286 294.311L109.63 260.469ZM175.194 267.848C174.679 268.157 174.422 268.543 174.422 269.006H174.423C174.423 269.068 174.454 269.191 174.516 269.377L184.102 300.186C184.382 301.082 185.177 301.53 186.486 301.53C187.796 301.53 188.622 301.082 188.965 300.186L198.457 269.377C198.457 269.315 198.465 269.253 198.48 269.191C198.496 269.13 198.504 269.083 198.504 269.052C198.504 268.62 198.247 268.234 197.732 267.894C197.218 267.554 196.665 267.384 196.072 267.384C195.355 267.384 194.888 267.678 194.67 268.265L186.486 295.785L178.257 268.265C178.069 267.678 177.586 267.384 176.807 267.384C176.246 267.384 175.708 267.539 175.194 267.848ZM198.872 280.681V292.727H198.872C198.872 295.105 199.784 297.182 201.608 298.958C203.432 300.734 205.606 301.622 208.131 301.622C210.625 301.622 212.784 300.734 214.607 298.958C216.431 297.182 217.343 295.105 217.343 292.727V280.634C217.343 280.264 217.164 279.947 216.805 279.684C216.447 279.422 215.987 279.291 215.426 279.291C214.896 279.291 214.436 279.43 214.046 279.708C213.657 279.986 213.462 280.294 213.462 280.634V292.727C213.462 294.147 212.932 295.406 211.872 296.503C210.812 297.599 209.565 298.147 208.131 298.147C206.666 298.147 205.403 297.591 204.343 296.479C203.283 295.367 202.753 294.117 202.753 292.727V280.681C202.753 280.341 202.559 280.025 202.169 279.731C201.779 279.438 201.335 279.291 200.836 279.291C200.306 279.291 199.847 279.43 199.457 279.708C199.067 279.986 198.872 280.311 198.872 280.681ZM220.516 287.769V292.634L220.516 292.634C220.516 295.321 221.482 297.491 223.415 299.143C225.348 300.796 227.842 301.622 230.897 301.622C232.985 301.622 234.739 301.251 236.157 300.51C237.576 299.769 238.285 299.043 238.285 298.333C238.285 297.931 238.129 297.537 237.817 297.151C237.506 296.765 237.132 296.572 236.695 296.572C236.415 296.572 236.041 296.719 235.573 297.012C235.105 297.306 234.49 297.607 233.726 297.916C232.962 298.225 232.066 298.379 231.037 298.379C229.073 298.379 227.476 297.869 226.244 296.85C225.013 295.831 224.397 294.472 224.397 292.773V291.383H234.638C235.293 291.383 235.815 291.352 236.204 291.291C236.594 291.229 237.015 291.082 237.467 290.85C237.919 290.619 238.254 290.233 238.472 289.692C238.691 289.152 238.8 288.433 238.8 287.538C238.8 285.098 237.911 283.067 236.134 281.445C234.357 279.824 232.253 279.013 229.822 279.013C227.265 279.013 225.075 279.878 223.252 281.607C221.428 283.337 220.516 285.391 220.516 287.769ZM233.048 288.789H224.397L224.397 287.121C224.397 285.7 224.927 284.503 225.987 283.53C227.047 282.557 228.31 282.071 229.775 282.071C231.271 282.071 232.534 282.596 233.562 283.646C234.591 284.696 235.106 285.916 235.106 287.306C235.106 287.893 234.965 288.287 234.685 288.487C234.404 288.688 233.859 288.789 233.048 288.789ZM241.459 297.383C240.992 297.861 240.758 298.441 240.758 299.12C240.758 299.769 240.992 300.332 241.459 300.811C241.927 301.29 242.504 301.529 243.189 301.529C243.844 301.529 244.405 301.29 244.873 300.811C245.34 300.332 245.574 299.769 245.574 299.12C245.574 298.441 245.34 297.861 244.873 297.383C244.405 296.904 243.844 296.665 243.189 296.665C242.504 296.665 241.927 296.904 241.459 297.383ZM244.68 308.965C244.368 309.29 244.212 309.699 244.212 310.193C244.212 311.305 244.883 311.861 246.223 311.861C248.374 311.861 249.979 311.073 251.039 309.498C252.099 307.923 252.629 305.792 252.629 303.105V280.634C252.629 280.233 252.442 279.909 252.068 279.662C251.694 279.414 251.226 279.291 250.665 279.291C250.104 279.291 249.644 279.414 249.286 279.662C248.927 279.909 248.748 280.233 248.748 280.634V303.105C248.748 304.896 248.561 306.24 248.187 307.135C247.813 308.031 247.018 308.479 245.802 308.479C245.366 308.479 244.992 308.641 244.68 308.965ZM248.935 269.515C248.467 269.948 248.234 270.457 248.234 271.044C248.234 271.631 248.475 272.148 248.958 272.596C249.442 273.044 250.011 273.268 250.665 273.268C251.32 273.268 251.881 273.044 252.349 272.596C252.816 272.148 253.05 271.631 253.05 271.044C253.05 270.457 252.816 269.948 252.349 269.515C251.881 269.083 251.32 268.867 250.665 268.867C249.979 268.867 249.403 269.083 248.935 269.515ZM255.92 296.919C255.655 297.305 255.522 297.699 255.522 298.1L255.522 298.1C255.522 298.934 256.271 299.73 257.767 300.486C259.263 301.243 261.071 301.622 263.191 301.622C265.654 301.622 267.571 301.066 268.943 299.954C270.314 298.842 271 297.328 271 295.413C271 293.869 270.61 292.61 269.831 291.637C269.052 290.665 268.101 289.977 266.979 289.576C265.856 289.174 264.726 288.835 263.588 288.557C262.451 288.279 261.492 287.892 260.713 287.398C259.933 286.904 259.544 286.225 259.544 285.36C259.544 284.526 259.894 283.777 260.596 283.113C261.297 282.449 262.365 282.117 263.799 282.117C264.859 282.117 265.926 282.341 267.002 282.788C268.077 283.236 268.677 283.46 268.802 283.46C269.239 283.46 269.605 283.229 269.901 282.765C270.197 282.302 270.345 281.885 270.345 281.514C270.345 280.866 269.66 280.287 268.288 279.777C266.916 279.267 265.404 279.013 263.752 279.013C261.165 279.013 259.24 279.654 257.977 280.935C256.715 282.217 256.083 283.738 256.083 285.499C256.083 286.92 256.473 288.062 257.252 288.927C258.032 289.792 258.983 290.41 260.105 290.78C261.227 291.151 262.349 291.491 263.472 291.8C264.594 292.109 265.545 292.564 266.324 293.166C267.103 293.769 267.493 294.579 267.493 295.599C267.493 296.433 267.142 297.128 266.441 297.684C265.74 298.24 264.61 298.517 263.051 298.517C261.866 298.517 260.838 298.34 259.965 297.985C259.092 297.63 258.422 297.267 257.954 296.896C257.486 296.525 257.128 296.34 256.879 296.34C256.504 296.34 256.185 296.533 255.92 296.919Z" fill="white"/>
</g>
<defs>
<filter id="filter0_dddd_101_74" x="0" y="0" width="362" height="350.462" filterUnits="userSpaceOnUse" color-interpolation-filters="sRGB">
<feFlood flood-opacity="0" result="BackgroundImageFix"/>
<feColorMatrix in="SourceAlpha" type="matrix" values="0 0 0 0 0 0 0 0 0 0 0 0 0 0 0 0 0 0 127 0" result="hardAlpha"/>
<feOffset dy="-164"/>
<feGaussianBlur stdDeviation="45.5"/>
<feComposite in2="hardAlpha" operator="out"/>
<feColorMatrix type="matrix" values="0 0 0 0 1 0 0 0 0 1 0 0 0 0 1 0 0 0 0.31 0"/>
<feBlend mode="normal" in2="BackgroundImageFix" result="effect1_dropShadow_101_74"/>
<feColorMatrix in="SourceAlpha" type="matrix" values="0 0 0 0 0 0 0 0 0 0 0 0 0 0 0 0 0 0 127 0" result="hardAlpha"/>
<feOffset dy="-91"/>
<feGaussianBlur stdDeviation="35"/>
<feComposite in2="hardAlpha" operator="out"/>
<feColorMatrix type="matrix" values="0 0 0 0 1 0 0 0 0 1 0 0 0 0 1 0 0 0 0.51 0"/>
<feBlend mode="normal" in2="effect1_dropShadow_101_74" result="effect2_dropShadow_101_74"/>
<feColorMatrix in="SourceAlpha" type="matrix" values="0 0 0 0 0 0 0 0 0 0 0 0 0 0 0 0 0 0 127 0" result="hardAlpha"/>
<feOffset dy="-35"/>
<feGaussianBlur stdDeviation="20.5"/>
<feComposite in2="hardAlpha" operator="out"/>
<feColorMatrix type="matrix" values="0 0 0 0 1 0 0 0 0 1 0 0 0 0 1 0 0 0 0.41 0"/>
<feBlend mode="normal" in2="effect2_dropShadow_101_74" result="effect3_dropShadow_101_74"/>
<feColorMatrix in="SourceAlpha" type="matrix" values="0 0 0 0 0 0 0 0 0 0 0 0 0 0 0 0 0 0 127 0" result="hardAlpha"/>
<feOffset/>
<feGaussianBlur stdDeviation="15"/>
<feComposite in2="hardAlpha" operator="out"/>
<feColorMatrix type="matrix" values="0 0 0 0 1 0 0 0 0 1 0 0 0 0 1 0 0 0 0.58 0"/>
<feBlend mode="normal" in2="effect3_dropShadow_101_74" result="effect4_dropShadow_101_74"/>
<feBlend mode="normal" in="SourceGraphic" in2="effect4_dropShadow_101_74" result="shape"/>
</filter>
</defs>
</svg>
