<svg width="1512" height="228" viewBox="0 0 1512 228" fill="none" xmlns="http://www.w3.org/2000/svg">
<rect opacity="0.6" x="72" y="56.9998" width="320" height="57" rx="7" fill="#D12510"/>
<rect opacity="0.2" x="-248" y="171" width="320" height="57" rx="7" fill="#D12510"/>
<rect opacity="0.2" x="1352" y="170" width="320" height="57" rx="7" fill="#D12510"/>
<rect opacity="0.3" x="552" y="114" width="320" height="57" rx="7" fill="#97B1B2"/>
<rect opacity="0.3" x="1032" y="171" width="320" height="57" rx="7" fill="#97B1B2"/>
<rect opacity="0.6" x="392" y="56.9998" width="320" height="57" rx="7" fill="#FEC05C"/>
<rect opacity="0.2" x="712" y="171" width="320" height="57" rx="7" fill="#FEC05C"/>
<rect opacity="0.2" x="72" y="171" width="320" height="57" rx="7" fill="#FEC05C"/>
<rect x="872" y="-0.000244141" width="320" height="57" rx="7" fill="#FEC05C"/>
<rect opacity="0.3" x="1192" y="114" width="320" height="57" rx="7" fill="#FEC05C"/>
<rect opacity="0.6" x="1032" y="56.9998" width="320" height="57" rx="7" fill="#D12510"/>
<rect opacity="0.3" x="872" y="114" width="320" height="57" rx="7" fill="#0165B1"/>
<rect opacity="0.3" x="232" y="114" width="320" height="57" rx="7" fill="#0165B1"/>
<rect x="552" y="-0.000244141" width="320" height="57" rx="7" fill="#0165B1"/>
<rect opacity="0.6" x="712" y="56.9998" width="320" height="57" rx="7" fill="black"/>
<rect opacity="0.3" x="-88" y="114" width="320" height="57" rx="7" fill="black"/>
<rect opacity="0.2" x="392" y="171" width="320" height="57" rx="7" fill="black"/>
</svg>
